<?xml version="1.0" encoding="UTF-8"?>
<svg id="Layer_1" data-name="Layer 1" xmlns="http://www.w3.org/2000/svg" viewBox="0 0 24 24">
  <g>
    <path d="M12,22.6c-5.84,0-10.6-4.76-10.6-10.6S6.16,1.4,12,1.4s10.6,4.76,10.6,10.6-4.76,10.6-10.6,10.6Z" style="fill: #fff;"/>
    <path d="M12,2.8c5.07,0,9.2,4.13,9.2,9.2s-4.13,9.2-9.2,9.2S2.8,17.07,2.8,12,6.93,2.8,12,2.8M12,0C5.37,0,0,5.37,0,12s5.37,12,12,12,12-5.37,12-12S18.63,0,12,0h0Z" style="fill: #00b8d3;"/>
  </g>
  <g>
    <path d="M12.07,20.55c-.76,0-1.46-.45-1.79-1.13l-4.64-9.67c-.23-.48-.26-1.02-.08-1.52.18-.5.54-.91,1.02-1.14.27-.13.56-.2.86-.2.76,0,1.47.44,1.8,1.13l2.89,6.01L19.34,1.7c.34-.68,1.02-1.1,1.78-1.1.31,0,.62.07.89.21.98.49,1.38,1.7.89,2.68l-9.04,15.96c-.34.68-1.02,1.1-1.78,1.1h-.01Z" style="fill: #231f20; stroke: #fff; stroke-miterlimit: 10;"/>
    <path d="M12.08,19.76h-.01c-.46,0-.87-.27-1.07-.68l-4.64-9.67c-.29-.6-.04-1.31.56-1.6.59-.29,1.31-.04,1.6.56l3.59,7.48,7.94-13.79c.3-.59,1.02-.83,1.61-.53.59.3.83,1.02.53,1.61l-9.04,15.96c-.2.4-.62.66-1.07.66Z" style="fill: #231f20;"/>
  </g>
</svg>